<svg xmlns="http://www.w3.org/2000/svg" xmlns:xlink="http://www.w3.org/1999/xlink" viewBox="0 0 195.27 171.33"><defs><style>.cls-1{fill:url(#linear-gradient);}.cls-2{fill:url(#linear-gradient-2);}.cls-3{fill:url(#linear-gradient-3);}</style><linearGradient id="linear-gradient" x1="65.08" y1="17.64" x2="66.83" y2="157.9" gradientUnits="userSpaceOnUse"><stop offset="0.02" stop-color="#1f79f4"/><stop offset="1" stop-color="#1cc6f9"/></linearGradient><linearGradient id="linear-gradient-2" x1="122.55" y1="85.19" x2="122.55" y2="189.39" gradientUnits="userSpaceOnUse"><stop offset="0.02" stop-color="#eda300"/><stop offset="1" stop-color="#fec764"/></linearGradient><linearGradient id="linear-gradient-3" x1="176.63" y1="85.19" x2="176.63" y2="189.39" xlink:href="#linear-gradient-2"/></defs><title>Asset 1</title><g id="Layer_2" data-name="Layer 2"><g id="Layer_1-2" data-name="Layer 1"><path class="cls-1" d="M87.34,117.66c0,7.83-.06,15.66,0,23.5a5,5,0,0,1-2,4.27,117.09,117.09,0,0,1-18.23,12.24,4.23,4.23,0,0,1-4,0A94,94,0,0,1,37.3,141.25c-17.88-16.2-27.47-36.92-32.7-60A202.43,202.43,0,0,1,0,38.38,4.66,4.66,0,0,1,2.72,33.8Q32.14,17.54,61.47,1.15c2.8-1.57,5-1.52,7.8.08C88,11.79,106.82,22.14,125.61,32.58c1,.56,1.93,1.31,3,1.81A3.48,3.48,0,0,1,130.66,38c-.58,16.61-2.28,33-7.23,49-.77,2.49-1.82,3.43-4.51,3.38-9.41-.17-18.83-.07-28.24-.06-3,0-3.34.35-3.35,3.3q0,12,0,24Zm-29-8.31c.41-.35.94-.75,1.4-1.21q5.05-5,10.08-10.06Q85.67,82.27,101.5,66.47c1.34-1.33,1.92-2.32.19-3.82a54.32,54.32,0,0,1-5.45-5.49c-1.49-1.72-2.5-1.76-4.16-.07-10.4,10.56-20.91,21-31.39,31.5-2.27,2.26-2.76,2.27-5.08,0-3.49-3.45-7-6.91-10.4-10.45-1.15-1.19-1.94-1.16-3.05,0-2,2.13-4,4.21-6.18,6.18-1.41,1.31-1.17,2.27.08,3.51,6.87,6.79,13.69,13.63,20.53,20.45A2.69,2.69,0,0,0,58.38,109.35Z"/><path class="cls-2" d="M151.85,127.66c0,8.75-.06,17.5,0,26.24,0,2.3-.74,3.13-3,3-2.91-.15-5.83,0-8.74,0-1.66,0-2.52.47-2.89,2.28a15.24,15.24,0,0,1-14.52,12.18A14.86,14.86,0,0,1,108,159.15c-.34-1.58-1.06-2.31-2.69-2.28-3.08.06-6.17-.05-9.25,0-1.74,0-2.69-.53-2.71-2.36,0-1.08-.14-2.16-.14-3.24q0-24.12,0-48.22c0-4.71.28-5,4.88-5h49.73c3.93,0,4.06.13,4.06,4.08q0,12.73,0,25.48Zm-29.41,35c4,0,6.61-2.35,6.64-6.11a6.42,6.42,0,1,0-12.84-.13C116.2,160.19,118.61,162.62,122.44,162.62Z"/><path class="cls-3" d="M158,134.7c0-6.25,0-12.5,0-18.74,0-2.93.45-3.36,3.33-3.37,5.33,0,10.66,0,16,0a5.37,5.37,0,0,1,5,2.68c3.65,5.67,7.44,11.25,11.2,16.85a7.9,7.9,0,0,1,1.64,4.38c0,7.32.45,14.65-.29,22-.71,7-6.91,12.5-14.09,12.88-6.8.36-13.55-4.49-15-11.18-.54-2.57-1.5-3.45-4.09-3.3-3.43.19-3.69-.21-3.69-3.65C158,147,158,140.86,158,134.7Zm17.37-.59c2.33,0,4.66,0,7,0,1.7,0,2.15-.4,1.09-1.94-2.17-3.15-4.26-6.36-6.37-9.54a3.16,3.16,0,0,0-2.81-1.76c-2,.05-4,0-6,0-1.36,0-2,.59-2,2,0,3.07,0,6.15,0,9.23,0,1.51.64,2.08,2.1,2.06C170.72,134.07,173,134.1,175.37,134.11Zm-1.67,22a6.6,6.6,0,0,0,6.44,6.85,6.88,6.88,0,0,0,6.47-6.62,6.38,6.38,0,0,0-6.36-6.57A6.31,6.31,0,0,0,173.7,156.15Z"/></g></g></svg>